<svg width="18" height="16" viewBox="0 0 18 16" fill="none" xmlns="http://www.w3.org/2000/svg">
<path d="M15 0.25H3C2.27065 0.25 1.57118 0.539731 1.05546 1.05546C0.539731 1.57118 0.25 2.27065 0.25 3V13C0.25 13.7293 0.539731 14.4288 1.05546 14.9445C1.57118 15.4603 2.27065 15.75 3 15.75H15C15.7293 15.75 16.4288 15.4603 16.9445 14.9445C17.4603 14.4288 17.75 13.7293 17.75 13V3C17.75 2.27065 17.4603 1.57118 16.9445 1.05546C16.4288 0.539731 15.7293 0.25 15 0.25ZM3 1.75H15C15.3315 1.75 15.6495 1.8817 15.8839 2.11612C16.1183 2.35054 16.25 2.66848 16.25 3V11.19L13.53 8.47C13.4589 8.394 13.3717 8.33482 13.2748 8.29677C13.178 8.25871 13.0738 8.24273 12.97 8.25C12.865 8.25611 12.7622 8.28314 12.6678 8.32951C12.5733 8.37587 12.4891 8.44064 12.42 8.52L11.13 10.07L6.53 5.47C6.46222 5.39797 6.37993 5.34111 6.28858 5.30319C6.19723 5.26527 6.09887 5.24714 6 5.25C5.89496 5.25611 5.79221 5.28314 5.69776 5.32951C5.60331 5.37587 5.51908 5.44064 5.45 5.52L1.75 9.93V3C1.75 2.66848 1.8817 2.35054 2.11612 2.11612C2.35054 1.8817 2.66848 1.75 3 1.75ZM1.75 13V12.27L6.05 7.11L10.17 11.23L7.65 14.23H3C2.67192 14.23 2.35697 14.1011 2.12311 13.871C1.88926 13.6409 1.75525 13.328 1.75 13ZM15 14.25H9.6L13.05 10.11L16.2 13.26C16.1447 13.538 15.9951 13.7884 15.7764 13.9688C15.5577 14.1492 15.2835 14.2485 15 14.25Z" fill="#1E293B"/>
</svg>
