<svg width="24" height="24" viewBox="0 0 24 24" fill="none" xmlns="http://www.w3.org/2000/svg">
<path d="M12 18.3332C11.7359 18.3297 11.4835 18.2233 11.2967 18.0365C11.1099 17.8497 11.0035 17.5973 11 17.3332V10.6665C11 10.4013 11.1054 10.1469 11.2929 9.9594C11.4804 9.77186 11.7348 9.6665 12 9.6665C12.2652 9.6665 12.5196 9.77186 12.7071 9.9594C12.8946 10.1469 13 10.4013 13 10.6665V17.3332C12.9965 17.5973 12.8901 17.8497 12.7033 18.0365C12.5165 18.2233 12.2641 18.3297 12 18.3332Z" fill="#EC445A"/>
<path d="M12 8.33317C11.7359 8.32972 11.4835 8.22325 11.2967 8.03646C11.1099 7.84967 11.0035 7.59731 11 7.33317V6.6665C11 6.40129 11.1054 6.14693 11.2929 5.9594C11.4804 5.77186 11.7348 5.6665 12 5.6665C12.2652 5.6665 12.5196 5.77186 12.7071 5.9594C12.8946 6.14693 13 6.40129 13 6.6665V7.33317C12.9965 7.59731 12.8901 7.84967 12.7033 8.03646C12.5165 8.22325 12.2641 8.32972 12 8.33317Z" fill="#EC445A"/>
<path d="M12 24C9.62663 24 7.30655 23.2962 5.33316 21.9776C3.35977 20.6591 1.8217 18.7849 0.913451 16.5922C0.00519935 14.3995 -0.232441 11.9867 0.230582 9.65892C0.693605 7.33115 1.83649 5.19295 3.51472 3.51472C5.19295 1.83649 7.33115 0.693605 9.65892 0.230582C11.9867 -0.232441 14.3995 0.00519935 16.5922 0.913451C18.7849 1.8217 20.6591 3.35977 21.9776 5.33316C23.2962 7.30655 24 9.62663 24 12C24 15.1826 22.7357 18.2348 20.4853 20.4853C18.2348 22.7357 15.1826 24 12 24ZM12 2.00001C10.0222 2.00001 8.0888 2.5865 6.4443 3.68531C4.79981 4.78412 3.51809 6.34591 2.76121 8.17317C2.00433 10.0004 1.8063 12.0111 2.19215 13.9509C2.578 15.8907 3.53041 17.6725 4.92894 19.0711C6.32746 20.4696 8.10929 21.422 10.0491 21.8079C11.9889 22.1937 13.9996 21.9957 15.8268 21.2388C17.6541 20.4819 19.2159 19.2002 20.3147 17.5557C21.4135 15.9112 22 13.9778 22 12C22 9.34784 20.9464 6.8043 19.0711 4.92894C17.1957 3.05357 14.6522 2.00001 12 2.00001Z" fill="#EC445A"/>
</svg>
