<svg width="67" height="32" viewBox="0 0 67 32" fill="none" xmlns="http://www.w3.org/2000/svg">
<path d="M10.6 3.95C10.5 4.15 10.5 4.75 10.2 4.75C10.1 4.65 10 4.35 9.8 4.35C9.7 4.55 9.7 5.05 9.4 5.15C9.3 5.05 9.3 4.75 9 4.65C8.9 4.75 7.8 5.35 7.8 5.35C7.8 5.45 8.7 7.25 8.8 7.35C9 7.45 10 7.85 10.2 7.85C10.4 7.85 10.5 7.55 10.7 7.55C10.7 7.65 10.7 7.65 10.7 7.85C10.7 7.95 10.6 8.95 10.4 8.95L8.4 8.55C8.2 8.55 7.7 7.85 7.4 7.75C8.1 8.55 8.2 10.45 9.7 10.35C9.6 10.75 9 11.05 8.6 11.05C7.5 11.05 7.6 10.55 6.8 10.05H6.7C7 10.55 7.2 11.15 7.2 11.65C7.2 11.75 7.1 11.95 7.1 12.15C6.5 11.85 6 11.55 5.4 11.45C4.7 11.95 4.4 12.75 4.3 13.55C3.8 13.55 3.6 12.85 3.6 12.55C3.6 12.15 3.7 11.65 3.9 11.15H3.8C3.4 12.25 2.8 13.45 1.5 13.75C1.7 13.25 1.7 12.95 1.7 12.45C1.7 11.75 1.8 11.05 2.1 10.35C1.8 10.75 1.3 10.95 0.8 10.95C0.7 10.95 0.5 10.95 0.3 10.85C1.4 10.15 0.9 8.55 1.5 7.25C0.9 6.95 0.4 7.15 0 6.55C1.5 5.85 1.6 3.75 3 3.75C3.1 3.75 3.1 3.65 3.1 3.65L2.7 0.75C2.7 0.75 5.2 2.75 5.6 2.75C6.3 2.75 10.1 0.85 10.6 0.85C10.9 0.85 11.3 3.15 11.3 3.45C11.3 3.85 10.7 3.75 10.6 3.95ZM37.6 28.35C37.6 28.55 37.5 28.75 37.4 28.75C36.6 28.85 35.5 29.15 34.8 29.15C34.7 29.15 34.7 29.05 34.7 29.05C34.7 29.05 36.4 27.05 36.6 26.65C36.5 26.05 34.3 22.65 33.9 22.05C33.8 21.95 33.7 21.85 33.6 21.85C32 21.55 30.5 21.15 29.1 20.55C28.8 20.45 28.6 20.35 28.3 20.15C28.3 20.05 28.2 20.05 28.2 20.05C28.1 20.05 28.1 20.55 28.1 20.75C28.1 22.15 28.9 22.15 30 21.95C30 22.65 29.2 22.85 29.2 23.05C29.2 23.15 29.4 23.15 29.4 23.15C29.6 23.15 29.8 23.05 30.1 23.05C30 23.75 29.3 23.75 29.3 23.85C29.3 24.05 29.6 24.25 29.8 24.15C29.6 24.45 28.9 24.85 28.9 25.05C28.9 25.65 29 26.25 29 26.85C28.9 26.95 26.8 27.45 26.5 27.55C26.4 27.55 26.2 27.45 26.2 27.45C26.2 27.45 27.6 25.15 27.8 24.95V24.85C27.8 23.75 26.2 22.75 25.6 22.15C25.1 21.75 25.1 21.05 24.9 20.45C24.9 20.35 24.9 20.35 24.8 20.35C24.5 20.35 23.7 21.45 23.7 21.75C23.7 22.05 24.1 22.15 24.4 22.15C24.5 22.15 24.8 22.05 25 22.05V22.15C25 22.55 24.5 22.85 24.2 22.95C24.2 23.25 24.8 23.15 25 23.15C24.9 23.55 24.1 23.95 24.1 24.05C24.1 24.15 24.7 24.15 24.8 24.15C24.7 24.55 24.3 24.85 24.1 25.15C23.8 25.75 24 26.45 24 27.05C24 27.35 23.9 27.45 23.6 27.45L21 27.55C20.9 27.55 20.9 27.45 20.9 27.45C20.9 27.05 22.8 25.25 22.8 24.95C22.8 24.85 22.7 24.75 22.7 24.75C21.9 23.65 21.1 22.65 20.6 21.45C20.3 21.45 19.5 21.65 19.5 22.15C19.5 22.45 20.3 22.45 20.5 22.45C20.6 22.95 18.9 23.25 18.9 23.55C18.9 23.65 19.6 23.75 19.7 23.75C19.3 24.35 18.2 24.25 18 24.45C18 24.45 18 24.45 18 24.55C18 24.75 18.7 24.85 18.8 24.75C18.4 25.25 17.2 25.15 17.2 25.45C17.2 25.65 17.8 25.75 17.8 25.85C17.8 26.05 16.7 26.25 16.5 26.45C16.4 26.65 16 28.05 15.4 28.65C15.3 28.65 13.5 27.25 13.5 27.05C13.5 26.75 15.4 25.75 15.7 25.35C15.7 25.25 16.6 21.65 16.6 21.45C16.6 21.35 16.5 21.35 16.3 21.35C15.6 21.35 14.9 21.65 14.1 21.65C13.8 21.65 13.5 21.55 13.3 21.55C13.1 21.55 12.7 22.25 12.7 22.45C12.7 22.85 13.1 22.85 13.4 22.85C13.6 22.85 13.9 22.85 14.1 22.75C13.7 23.55 12.4 23.55 12.4 24.15C12.4 24.25 12.8 24.35 13 24.35C13.2 24.35 13.4 24.25 13.7 24.25C13.2 25.25 12 25.05 12 25.45C12 25.75 12.7 25.65 12.8 25.65C12.6 26.35 11.8 26.15 11.4 26.95C11.3 27.25 10.8 28.65 10.7 28.65C10.6 28.65 10.6 28.65 10.6 28.65C10.4 28.45 9 27.35 9 27.15C9 26.75 10.6 26.45 10.6 25.25C10.6 24.55 10.3 23.95 10.1 23.35C9.9 22.65 10 22.15 10 21.45C10 21.35 10 21.35 9.9 21.35C9.2 21.25 8.7 21.05 8 20.75C8 20.75 8 20.75 7.9 20.75V21.65C7.9 22.35 8.8 22.35 9.3 22.35V22.45C9.3 23.05 8.2 23.15 8.2 23.55C8.2 23.85 9 24.15 9.3 24.25C9.1 24.55 8.4 25.05 8.4 25.15C8.4 25.45 8.8 25.65 9.1 25.65C8.9 26.25 8.3 26.45 8.3 26.75C8.3 26.95 8.4 27.15 8.6 27.25C6.1 28.75 7 31.65 5.9 31.75C5.6 31.75 5.3 31.75 5.1 31.75C4.7 31.75 4.2 31.75 3.8 31.65C3.7 31.65 3.7 31.65 3.7 31.55C3.7 31.05 5.7 29.55 5.7 27.95C5.7 27.85 5.7 27.75 5.7 27.65C5.1 24.15 3.8 20.75 3.1 17.25C3 16.55 2.9 15.85 2.9 15.25C2.9 14.55 3 13.85 3.3 13.15C3.4 13.75 4.1 14.25 4.7 14.25C4.7 13.95 5.3 12.15 5.7 12.15C6.1 12.15 6.9 12.55 7.3 12.85C7.7 12.45 7.8 12.05 7.9 11.45C8.2 11.55 8.5 11.75 8.8 11.75C9.6 11.75 10.2 11.35 10.7 10.65C10.8 10.95 10.8 11.25 10.8 11.45C10.8 11.95 10.4 13.05 10.4 13.25H10.5C11 13.25 12.1 11.85 12.4 11.55C12.6 11.85 12.7 12.25 12.7 12.55C12.7 12.95 12.5 13.35 12.5 13.75C12.5 13.85 12.6 13.85 12.6 13.85C13.3 13.85 13.8 12.35 14.4 12.05C14.4 12.35 14.5 14.05 14.8 14.05C14.9 14.05 15.5 12.55 16.1 12.45C16.1 12.75 16.2 14.25 16.5 14.25C17 14.25 17.2 12.65 17.7 12.65C17.7 13.05 17.9 14.25 18.4 14.25C18.8 14.25 18.5 13.05 19.1 12.75C19.2 13.15 19.6 13.95 20 13.95C20.1 13.85 20.1 12.95 20.4 12.65C20.6 12.95 20.8 13.35 21.2 13.35C21.4 13.35 21.7 13.25 21.8 12.95C21.4 12.45 21.1 11.75 21.1 11.15C21.1 10.35 21.8 9.55 22.7 9.55C23.3 9.55 23.8 10.05 23.8 10.65C23.8 11.05 23.6 11.45 23.1 11.45C22.7 11.45 22.6 11.05 22.3 10.85C22.3 10.95 22.3 10.95 22.3 11.05C22.3 11.55 22.8 12.15 23.3 12.15C25.5 12.15 24.6 5.55 29 5.55C30.9 5.55 32.3 7.05 32.3 8.85C32.3 10.55 30.9 11.45 30.9 11.75V11.85C33.9 14.05 33.2 18.85 36.4 19.15C36.3 19.25 36.3 19.45 36.3 19.55C36.3 19.85 36.7 19.95 36.9 19.95C37.2 19.95 37.4 19.95 37.6 19.85V19.95C37.7 20.65 36.6 20.85 36.6 21.05C36.6 21.45 37.6 21.45 37.8 21.35C37.7 21.95 37 22.05 37 22.25C37 22.65 37.5 22.65 37.8 22.65C37.5 23.05 37 23.45 37 23.95C37 25.05 38.1 25.45 38.6 26.15C37.5 26.65 37.6 27.35 37.6 28.35ZM6.5 3.65C6.2 3.65 6 3.95 6 4.25C6 4.55 6.2 4.75 6.5 4.75C6.9 4.75 7.1 4.55 7.1 4.15C7.1 3.75 6.8 3.65 6.5 3.65ZM28.6 7.05C26.6 7.05 25.9 11.15 24.4 12.65V12.75C25.6 12.75 27 11.35 27.5 10.45C27.9 10.85 28.3 11.05 28.8 11.05C29.9 11.05 30.7 10.25 30.7 9.15C30.8 7.75 29.8 7.05 28.6 7.05Z" fill="black"/>
<path d="M19.6 7.45C18.9 7.45 18.3 7.35 17.7 7.15C17.7 7.35 17.8 7.55 17.8 7.75C17.5 7.65 17.2 7.55 17 7.55C16.1 7.55 15.1 7.95 14.2 7.95C12.8 7.95 11.5 7.05 11.3 7.05C10.5 7.05 9.6 6.95 9 6.25C9.8 5.55 10.6 5.25 11.6 5.05C11.6 4.75 11.2 4.35 11.2 4.25C11.2 4.15 11.2 4.25 11.3 4.25C12.7 4.25 13.8 3.25 15.1 3.25C16.7 3.25 18.2 4.15 19.9 4.15C19.9 4.35 19.8 4.45 19.7 4.55C19.8 4.75 20.1 4.75 20.3 4.75C21.4 4.75 22.3 4.25 23.3 4.25C23.7 4.25 24.7 4.55 24.7 5.05C23.4 5.05 22.7 7.45 19.6 7.45Z" fill="#CA0538"/>
<path d="M51.1004 16.85C51.1004 17.95 50.3004 18.65 49.4004 18.65L45.0004 18.85C45.1004 21.15 47.4004 21.15 49.1004 21.15C49.5004 21.15 49.9004 21.15 50.3004 21.05L50.1004 22.95C49.5004 22.95 49.0004 23.05 48.5004 23.05C46.5004 23.05 45.1004 22.65 44.2004 21.75C43.3004 20.85 42.9004 19.55 42.9004 17.85C42.9004 14.65 45.1004 12.75 47.2004 12.75C50.0004 12.95 51.1004 14.85 51.1004 16.85ZM49.2004 16.25C49.2004 15.65 48.5004 14.85 47.4004 14.85C46.0004 14.85 45.2004 15.95 45.1004 17.15L48.4004 16.95C49.0004 17.05 49.2004 16.65 49.2004 16.25ZM61.3004 22.95V16.25C61.3004 14.25 60.5004 12.95 58.2004 12.95C56.4004 12.95 54.5004 14.05 53.2004 15.25V22.95H55.2004V16.05C56.0004 15.45 57.3004 14.85 58.2004 14.85C58.9004 14.85 59.4004 15.25 59.4004 16.25V22.85C59.3004 22.95 61.3004 22.95 61.3004 22.95ZM66.9004 9.85C66.9004 9.25 66.3004 8.75 65.7004 8.75C65.1004 8.75 64.5004 9.25 64.5004 9.95C64.5004 10.65 65.0004 11.15 65.7004 11.15C66.4004 11.05 66.9004 10.55 66.9004 9.85ZM66.5004 22.95V12.95L64.5004 13.45V22.95H66.5004Z" fill="#1D1D1D"/>
</svg>
