<svg width="32" height="32" viewBox="0 0 32 32" fill="none" xmlns="http://www.w3.org/2000/svg">
<path d="M18.9301 17.3L16.9771 3H16.8311C13.4216 3.00579 10.153 4.36115 7.73988 6.7698C5.32673 9.17845 3.96528 12.4445 3.95312 15.854V16L18.9301 17.3Z" fill="#ED6C47"/>
<path d="M17.1226 3H16.9766V16L23.4876 18.6L29.9996 16V15.854C29.9874 12.4447 28.6261 9.17878 26.2132 6.77015C23.8002 4.36153 20.5319 3.00606 17.1226 3Z" fill="#FF8F6B"/>
<path d="M30.0001 16V16.143C29.9874 19.553 28.6257 22.8193 26.2123 25.2284C23.7989 27.6375 20.5301 28.9934 17.1201 29H16.8331C13.4233 28.9929 10.1548 27.6368 7.74156 25.2278C5.32829 22.8188 3.96633 19.5528 3.95312 16.143V16H30.0001Z" fill="#D35230"/>
<path opacity="0.1" d="M17.6281 9.3892V23.2602C17.6263 23.4962 17.555 23.7264 17.423 23.9221C17.291 24.1177 17.1043 24.2701 16.8861 24.3602C16.7437 24.4202 16.5907 24.4511 16.4361 24.4512H7.02713C6.84459 24.2418 6.67077 24.0249 6.50613 23.8012C4.84742 21.5932 3.9514 18.9058 3.95314 16.1442V15.8582C3.94999 13.3671 4.67922 10.9301 6.05014 8.8502C6.1923 8.62679 6.34445 8.40991 6.50613 8.2002H16.4361C16.7511 8.20228 17.0526 8.32813 17.2756 8.55057C17.4987 8.77302 17.6253 9.07423 17.6281 9.3892Z" fill="black"/>
<path opacity="0.2" d="M16.9771 10.0401V23.9111C16.9771 24.065 16.9461 24.2174 16.8861 24.3591C16.7959 24.5771 16.6435 24.7636 16.4478 24.8954C16.2522 25.0272 16.022 25.0984 15.7861 25.1001H7.62013C7.41413 24.8908 7.21647 24.6741 7.02713 24.4501C6.84458 24.2407 6.67077 24.0238 6.50613 23.8001C4.84742 21.5921 3.9514 18.9047 3.95313 16.1431V15.8571C3.95019 13.3664 4.67941 10.9297 6.05013 8.8501H15.7851C16.1003 8.85219 16.402 8.97817 16.625 9.20083C16.848 9.42349 16.9745 9.72495 16.9771 10.0401Z" fill="black"/>
<path opacity="0.2" d="M16.9771 10.0401V22.6111C16.9743 22.9261 16.8476 23.2273 16.6246 23.4497C16.4016 23.6722 16.1001 23.798 15.7851 23.8001H6.50613C4.84742 21.5921 3.9514 18.9047 3.95313 16.1431V15.8571C3.95019 13.3664 4.67941 10.9297 6.05013 8.8501H15.7851C16.1003 8.85219 16.402 8.97817 16.625 9.20083C16.848 9.42349 16.9745 9.72495 16.9771 10.0401Z" fill="black"/>
<path opacity="0.2" d="M16.3261 10.0401V22.6111C16.3233 22.9261 16.1966 23.2273 15.9736 23.4497C15.7506 23.6722 15.4491 23.798 15.1341 23.8001H6.50613C4.84742 21.5921 3.9514 18.9047 3.95313 16.1431V15.8571C3.95019 13.3664 4.67941 10.9297 6.05013 8.8501H15.1341C15.4493 8.85219 15.751 8.97817 15.974 9.20083C16.197 9.42349 16.3235 9.72495 16.3261 10.0401Z" fill="black"/>
<path d="M3.194 8.8501H15.132C15.4482 8.84983 15.7516 8.97513 15.9755 9.19846C16.1994 9.42179 16.3255 9.72487 16.326 10.0411V21.9591C16.3255 22.2753 16.1994 22.5784 15.9755 22.8017C15.7516 23.0251 15.4482 23.1504 15.132 23.1501H3.194C3.03738 23.1504 2.88224 23.1198 2.73746 23.06C2.59267 23.0003 2.46108 22.9126 2.35019 22.802C2.2393 22.6914 2.1513 22.56 2.09121 22.4154C2.03113 22.2708 2.00013 22.1157 2 21.9591V10.0411C2.00013 9.88448 2.03113 9.72942 2.09121 9.58479C2.1513 9.44015 2.2393 9.30877 2.35019 9.19817C2.46108 9.08756 2.59267 8.99989 2.73746 8.94016C2.88224 8.88044 3.03738 8.84984 3.194 8.8501Z" fill="url(#paint0_linear_1073_153496)"/>
<path d="M9.29263 12.0279C10.0698 11.9757 10.8402 12.201 11.4666 12.6639C11.7242 12.8932 11.9261 13.1782 12.0571 13.4972C12.1881 13.8161 12.2447 14.1608 12.2226 14.5049C12.2314 14.9897 12.102 15.4669 11.8496 15.8809C11.5943 16.2883 11.2265 16.613 10.7906 16.8159C10.2926 17.0469 9.74846 17.1611 9.19963 17.1499H7.68663V19.9499H6.14062V12.0279H9.29263ZM7.68563 15.9399H9.01663C9.43863 15.9703 9.85721 15.8455 10.1936 15.5889C10.3312 15.4577 10.4383 15.2979 10.5074 15.1208C10.5765 14.9437 10.606 14.7536 10.5936 14.5639C10.5936 13.6913 10.0853 13.2546 9.06863 13.2539H7.68563V15.9399Z" fill="white"/>
<defs>
<linearGradient id="paint0_linear_1073_153496" x1="4.494" y1="7.9141" x2="13.832" y2="24.0861" gradientUnits="userSpaceOnUse">
<stop stop-color="#CA4C28"/>
<stop offset="0.5" stop-color="#C5401E"/>
<stop offset="1" stop-color="#B62F14"/>
</linearGradient>
</defs>
</svg>
