<svg width="24" height="24" viewBox="0 0 24 24" fill="none" xmlns="http://www.w3.org/2000/svg">
<g clip-path="url(#clip0_760_124857)">
<path d="M21.26 11.182H17.4431V13.0904H21.26V11.182ZM21.26 10.0915H17.4431V8.183H21.26V10.0915ZM21.26 19.0884H17.4431V17.18H21.26V19.0884ZM21.26 16.0894H17.4431V14.181H21.26V16.0894ZM21.26 7.0925H17.4431V5.18403H21.26V7.09255V7.0925ZM23.8964 3.33013C23.7873 2.76303 23.1057 2.74944 22.6504 2.73032H14.1715V0.276644H12.4785L0 2.45774V21.5393L12.5521 23.7231H14.1715V21.5503H22.3587C22.8195 21.5312 23.3266 21.5639 23.7273 21.2886C24.0082 20.8851 23.9809 20.3725 24 19.909L23.9891 5.71569C23.9755 4.92233 24.0627 4.11257 23.8964 3.33013ZM9.99745 7.60775C9.24502 9.13447 8.47894 10.6504 7.72917 12.1771C8.47073 13.663 9.20142 15.1543 9.92934 16.6456C9.31045 16.6156 8.69156 16.5774 8.07544 16.5338C7.61466 15.4133 7.07756 14.3227 6.7177 13.164C6.38236 14.2573 5.93798 15.3097 5.53177 16.3757C4.93195 16.343 4.33214 16.3075 3.73237 16.2721C4.36486 14.8761 5.03831 13.4994 5.65172 12.0953C4.92923 10.7322 4.25311 9.34986 3.55242 7.97853C4.14947 7.95402 4.74656 7.92946 5.34361 7.9213C5.76895 9.00636 6.29784 10.0506 6.66862 11.1575C7.00125 9.96875 7.56558 8.87005 8.02908 7.73319C8.68612 7.68678 9.34041 7.64591 9.99745 7.60775ZM22.6997 20.2554H14.1715V19.0884H16.3526V17.18H14.1715V16.0894H16.3526V14.181H14.1715V13.0904H16.3526V11.182H14.1715V10.0915H16.3526V8.183H14.1715V7.0925H16.3526V5.18403H14.1715V3.92324H22.6997V20.2554Z" fill="#21A366"/>
</g>
<defs>
<clipPath id="clip0_760_124857">
<rect width="24" height="24" fill="white" transform="matrix(1 0 0 -1 0 24)"/>
</clipPath>
</defs>
</svg>
