<svg width="32" height="32" viewBox="0 0 32 32" fill="none" xmlns="http://www.w3.org/2000/svg">
<path d="M19.5807 15.3499L8.51172 13.3999V27.8089C8.51185 27.9654 8.54281 28.1204 8.60284 28.265C8.66286 28.4096 8.75077 28.5409 8.86155 28.6515C8.97233 28.7621 9.10381 28.8498 9.24848 28.9095C9.39315 28.9693 9.54818 29 9.70472 28.9999H28.8047C28.9614 29.0003 29.1167 28.9698 29.2616 28.9101C29.4065 28.8505 29.5382 28.7628 29.6492 28.6522C29.7602 28.5416 29.8483 28.4101 29.9084 28.2654C29.9686 28.1207 29.9996 27.9656 29.9997 27.8089V22.4999L19.5807 15.3499Z" fill="#185C37"/>
<path d="M19.5807 3H9.70472C9.54818 2.99987 9.39315 3.03057 9.24848 3.09035C9.10381 3.15014 8.97233 3.23783 8.86155 3.34842C8.75077 3.45902 8.66286 3.59035 8.60284 3.73492C8.54281 3.87949 8.51185 4.03446 8.51172 4.191V9.5L19.5807 16L25.4417 17.95L29.9997 16V9.5L19.5807 3Z" fill="#21A366"/>
<path d="M8.51172 9.5H19.5807V16H8.51172V9.5Z" fill="#107C41"/>
<path opacity="0.1" d="M16.4337 8.2002H8.51172V24.4502H16.4337C16.7494 24.4486 17.0517 24.3227 17.2752 24.0998C17.4987 23.8769 17.6254 23.5749 17.6277 23.2592V9.3912C17.6254 9.07553 17.4987 8.77352 17.2752 8.55059C17.0517 8.32765 16.7494 8.20176 16.4337 8.2002Z" fill="black"/>
<path opacity="0.2" d="M15.7827 8.8501H8.51172V25.1001H15.7827C16.0984 25.0985 16.4007 24.9726 16.6242 24.7497C16.8477 24.5268 16.9744 24.2248 16.9767 23.9091V10.0411C16.9744 9.72544 16.8477 9.42342 16.6242 9.20049C16.4007 8.97756 16.0984 8.85167 15.7827 8.8501Z" fill="black"/>
<path opacity="0.2" d="M15.7827 8.8501H8.51172V23.8001H15.7827C16.0984 23.7985 16.4007 23.6726 16.6242 23.4497C16.8477 23.2268 16.9744 22.9248 16.9767 22.6091V10.0411C16.9744 9.72544 16.8477 9.42342 16.6242 9.20049C16.4007 8.97756 16.0984 8.85167 15.7827 8.8501Z" fill="black"/>
<path opacity="0.2" d="M15.1317 8.8501H8.51172V23.8001H15.1317C15.4474 23.7985 15.7497 23.6726 15.9732 23.4497C16.1967 23.2268 16.3234 22.9248 16.3257 22.6091V10.0411C16.3234 9.72544 16.1967 9.42342 15.9732 9.20049C15.7497 8.97756 15.4474 8.85167 15.1317 8.8501Z" fill="black"/>
<path d="M3.194 8.8501H15.132C15.4482 8.84983 15.7516 8.97513 15.9755 9.19846C16.1994 9.42179 16.3255 9.72487 16.326 10.0411V21.9591C16.3255 22.2753 16.1994 22.5784 15.9755 22.8017C15.7516 23.0251 15.4482 23.1504 15.132 23.1501H3.194C3.03738 23.1504 2.88224 23.1198 2.73746 23.06C2.59267 23.0003 2.46108 22.9126 2.35019 22.802C2.2393 22.6914 2.1513 22.56 2.09121 22.4154C2.03113 22.2708 2.00013 22.1157 2 21.9591V10.0411C2.00013 9.88448 2.03113 9.72942 2.09121 9.58479C2.1513 9.44015 2.2393 9.30877 2.35019 9.19817C2.46108 9.08756 2.59267 8.99989 2.73746 8.94016C2.88224 8.88044 3.03738 8.84984 3.194 8.8501Z" fill="url(#paint0_linear_1073_153353)"/>
<path d="M5.7002 19.873L8.2112 15.989L5.9112 12.127H7.7582L9.0132 14.6C9.12919 14.834 9.2132 15.008 9.2512 15.124H9.2682C9.3502 14.936 9.4372 14.755 9.5282 14.578L10.8702 12.131H12.5702L10.2112 15.971L12.6302 19.876H10.8212L9.3712 17.165C9.30387 17.0484 9.24666 16.9263 9.2002 16.8H9.1762C9.13391 16.923 9.07754 17.0408 9.0082 17.151L7.5152 19.873H5.7002Z" fill="white"/>
<path d="M28.8061 3H19.5811V9.5H30.0001V4.191C29.9999 4.03438 29.9689 3.87932 29.9088 3.73469C29.8488 3.59005 29.7608 3.45868 29.6499 3.34807C29.539 3.23746 29.4074 3.14979 29.2626 3.09007C29.1178 3.03034 28.9627 2.99974 28.8061 3Z" fill="#33C481"/>
<path d="M19.5811 16H30.0001V22.5H19.5811V16Z" fill="#107C41"/>
<defs>
<linearGradient id="paint0_linear_1073_153353" x1="4.494" y1="7.9141" x2="13.832" y2="24.0861" gradientUnits="userSpaceOnUse">
<stop stop-color="#18884F"/>
<stop offset="0.5" stop-color="#117E43"/>
<stop offset="1" stop-color="#0B6631"/>
</linearGradient>
</defs>
</svg>
