<svg width="26" height="26" viewBox="0 0 26 26" fill="none" xmlns="http://www.w3.org/2000/svg">
<path d="M3.69683 0.25H17.1713C17.213 0.25 17.2536 0.266684 17.2836 0.296407C17.2837 0.296482 17.2838 0.296558 17.2839 0.296634L22.6852 5.69799L22.6858 5.69853L22.6859 5.69863C22.6933 5.70609 22.7006 5.71341 22.7092 5.74575C22.7211 5.7901 22.7319 5.87111 22.7319 6.0255V25.5183C22.7298 25.5223 22.7265 25.5282 22.7211 25.5362C22.7034 25.5625 22.6727 25.5968 22.629 25.6309C22.5404 25.7001 22.4233 25.75 22.3026 25.75H3.69683C3.57609 25.75 3.459 25.7001 3.37045 25.6309C3.32674 25.5968 3.29604 25.5625 3.27831 25.5362C3.27296 25.5282 3.2696 25.5223 3.26758 25.5183V0.894214C3.26758 0.640246 3.33293 0.478059 3.40978 0.384408C3.48356 0.294501 3.58146 0.25 3.69683 0.25Z" fill="white" stroke="#BABABA" stroke-width="0.5"/>
<path d="M17.4102 0.0703125V5.57163H22.9115L17.4102 0.0703125Z" fill="#BBBBBB"/>
<path d="M9.05995 15.4721C8.89838 15.4721 8.74331 15.4196 8.61099 15.3207C8.12767 14.9581 8.06266 14.5547 8.09331 14.2798C8.17781 13.5239 9.11241 12.7328 10.8721 11.9268C11.5703 10.3965 12.2347 8.51105 12.6308 6.93573C12.1674 5.9273 11.7171 4.61895 12.0453 3.85148C12.1605 3.58266 12.3039 3.37652 12.5718 3.28738C12.6777 3.25209 12.9451 3.20752 13.0435 3.20752C13.2775 3.20752 13.4832 3.50884 13.629 3.69456C13.766 3.86913 14.0766 4.23916 13.4558 6.85263C14.0817 8.1452 14.9685 9.46191 15.8181 10.3636C16.4268 10.2535 16.9505 10.1973 17.3772 10.1973C18.1042 10.1973 18.5448 10.3668 18.7245 10.7159C18.8731 11.0047 18.8123 11.3423 18.5434 11.7188C18.2848 12.0805 17.9283 12.2718 17.5127 12.2718C16.9482 12.2718 16.2907 11.9152 15.5576 11.2109C14.2404 11.4862 12.7023 11.9774 11.4589 12.5211C11.0708 13.3447 10.6989 14.0082 10.3525 14.4948C9.87663 15.161 9.4662 15.4721 9.05995 15.4721ZM10.2959 13.0922C9.3037 13.6498 8.89931 14.108 8.87006 14.3662C8.86541 14.4089 8.85288 14.5212 9.07016 14.6874C9.13934 14.6656 9.54327 14.4813 10.2959 13.0922ZM16.6273 11.0298C17.0057 11.3209 17.0981 11.4681 17.3456 11.4681C17.4542 11.4681 17.7639 11.4634 17.9074 11.2633C17.9766 11.1663 18.0035 11.1041 18.0142 11.0707C17.9571 11.0405 17.8814 10.9792 17.4686 10.9792C17.2342 10.9797 16.9393 10.9899 16.6273 11.0298ZM13.1591 7.97388C12.8272 9.12252 12.3889 10.3626 11.9176 11.4857C12.888 11.1092 13.9428 10.7805 14.9336 10.5479C14.3068 9.81988 13.6805 8.9108 13.1591 7.97388ZM12.8773 4.04509C12.8318 4.06041 12.2598 4.86084 12.9219 5.53823C13.3625 4.55627 12.8973 4.03859 12.8773 4.04509Z" fill="#CC4B4C"/>
<path d="M22.3026 25.9998H3.69683C3.32169 25.9998 3.01758 25.6957 3.01758 25.3205V18.1069H22.9819V25.3205C22.9819 25.6957 22.6778 25.9998 22.3026 25.9998Z" fill="#CC4B4C"/>
<path d="M8.07146 24.6073H7.30957V19.9292H8.65507C8.85378 19.9292 9.05064 19.9608 9.24518 20.0244C9.43971 20.088 9.61428 20.1832 9.76889 20.3099C9.9235 20.4367 10.0484 20.5903 10.1436 20.77C10.2387 20.9497 10.2866 21.1517 10.2866 21.3764C10.2866 21.6136 10.2462 21.8281 10.1659 22.0208C10.0855 22.2135 9.97318 22.3755 9.82925 22.5064C9.68532 22.6374 9.51168 22.7391 9.30878 22.811C9.10589 22.883 8.88118 22.9187 8.63603 22.9187H8.071L8.07146 24.6073ZM8.07146 20.5068V22.3602H8.76975C8.86261 22.3602 8.95453 22.3444 9.046 22.3124C9.137 22.2808 9.22057 22.2288 9.29671 22.1568C9.37286 22.0849 9.43414 21.9846 9.48057 21.8555C9.527 21.7265 9.55021 21.5667 9.55021 21.3764C9.55021 21.3002 9.53953 21.212 9.51864 21.1131C9.49728 21.0138 9.45411 20.9186 9.38864 20.8276C9.32271 20.7366 9.23078 20.6604 9.11239 20.5992C8.994 20.5379 8.83707 20.5072 8.64253 20.5072L8.07146 20.5068Z" fill="white"/>
<path d="M14.9586 22.1383C14.9586 22.5232 14.9173 22.8523 14.8346 23.1253C14.752 23.3983 14.6475 23.6268 14.5203 23.8111C14.3931 23.9954 14.2506 24.1403 14.0918 24.2461C13.933 24.352 13.7798 24.4309 13.6317 24.4843C13.4836 24.5372 13.348 24.5711 13.2254 24.586C13.1029 24.5999 13.0119 24.6073 12.9524 24.6073H11.1816V19.9292H12.5907C12.9845 19.9292 13.3304 19.9919 13.6284 20.1163C13.9265 20.2407 14.1744 20.4074 14.3713 20.6145C14.5681 20.8216 14.7149 21.0579 14.8124 21.3221C14.9099 21.5867 14.9586 21.8588 14.9586 22.1383ZM12.6989 24.0488C13.2152 24.0488 13.5876 23.884 13.816 23.5539C14.0444 23.2238 14.1586 22.7456 14.1586 22.1192C14.1586 21.9247 14.1354 21.732 14.089 21.5417C14.0421 21.3513 13.9525 21.1791 13.8192 21.0244C13.686 20.8698 13.5049 20.745 13.2765 20.6498C13.0481 20.5546 12.7519 20.5068 12.3879 20.5068H11.9435V24.0488H12.6989Z" fill="white"/>
<path d="M16.8379 20.5068V21.9795H18.793V22.4999H16.8379V24.6073H16.0635V19.9292H18.9894V20.5068H16.8379Z" fill="white"/>
</svg>
