<svg width="24" height="24" viewBox="0 0 24 24" fill="none" xmlns="http://www.w3.org/2000/svg">
<path d="M20.25 8.25001C20.2509 8.15031 20.2314 8.05147 20.1927 7.95957C20.154 7.86768 20.097 7.78466 20.025 7.71564L14.7844 2.46564C14.6415 2.32635 14.4495 2.24889 14.25 2.25001H5.25C4.85218 2.25001 4.47064 2.40805 4.18934 2.68935C3.90804 2.97066 3.75 3.35219 3.75 3.75001V12C3.75 12.1989 3.82902 12.3897 3.96967 12.5303C4.11032 12.671 4.30109 12.75 4.5 12.75C4.69891 12.75 4.88968 12.671 5.03033 12.5303C5.17098 12.3897 5.25 12.1989 5.25 12V3.75001H13.5V8.25001C13.5 8.44893 13.579 8.63969 13.7197 8.78034C13.8603 8.92099 14.0511 9.00001 14.25 9.00001H18.75V12C18.75 12.1989 18.829 12.3897 18.9697 12.5303C19.1103 12.671 19.3011 12.75 19.5 12.75C19.6989 12.75 19.8897 12.671 20.0303 12.5303C20.171 12.3897 20.25 12.1989 20.25 12V8.25001ZM15 4.80939L17.6906 7.50001H15V4.80939ZM17.25 15H15.75C15.5511 15 15.3603 15.079 15.2197 15.2197C15.079 15.3603 15 15.5511 15 15.75V20.25C15 20.4489 15.079 20.6397 15.2197 20.7803C15.3603 20.921 15.5511 21 15.75 21C15.9489 21 16.1397 20.921 16.2803 20.7803C16.421 20.6397 16.5 20.4489 16.5 20.25V19.5H17.25C17.8467 19.5 18.419 19.263 18.841 18.841C19.2629 18.419 19.5 17.8468 19.5 17.25C19.5 16.6533 19.2629 16.081 18.841 15.659C18.419 15.2371 17.8467 15 17.25 15ZM17.25 18H16.5V16.5H17.25C17.4489 16.5 17.6397 16.579 17.7803 16.7197C17.921 16.8603 18 17.0511 18 17.25C18 17.4489 17.921 17.6397 17.7803 17.7803C17.6397 17.921 17.4489 18 17.25 18ZM12.75 15.75V20.25C12.75 20.4489 12.671 20.6397 12.5303 20.7803C12.3897 20.921 12.1989 21 12 21C11.8011 21 11.6103 20.921 11.4697 20.7803C11.329 20.6397 11.25 20.4489 11.25 20.25V15.75C11.25 15.5511 11.329 15.3603 11.4697 15.2197C11.6103 15.079 11.8011 15 12 15C12.1989 15 12.3897 15.079 12.5303 15.2197C12.671 15.3603 12.75 15.5511 12.75 15.75ZM9 20.25C9 20.4489 8.92098 20.6397 8.78033 20.7803C8.63968 20.921 8.44891 21 8.25 21H5.25C5.11375 21.001 4.97979 20.9649 4.86252 20.8955C4.74525 20.8262 4.64909 20.7262 4.58438 20.6063C4.52343 20.4859 4.49485 20.3517 4.50142 20.2169C4.508 20.0822 4.54951 19.9514 4.62187 19.8375L6.85312 16.5H5.25C5.05109 16.5 4.86032 16.421 4.71967 16.2803C4.57902 16.1397 4.5 15.9489 4.5 15.75C4.5 15.5511 4.57902 15.3603 4.71967 15.2197C4.86032 15.079 5.05109 15 5.25 15H8.25C8.38625 14.999 8.52021 15.0351 8.63748 15.1045C8.75475 15.1738 8.85091 15.2739 8.91562 15.3938C8.97657 15.5142 9.00515 15.6483 8.99858 15.7831C8.992 15.9179 8.95049 16.0486 8.87812 16.1625L6.64688 19.5H8.25C8.44891 19.5 8.63968 19.579 8.78033 19.7197C8.92098 19.8603 9 20.0511 9 20.25Z" fill="black"/>
</svg>
