<svg width="24" height="26" fill="none" xmlns="http://www.w3.org/2000/svg"><path d="M3.25 25.5a2.41 2.41 0 0 1-1.766-.734A2.41 2.41 0 0 1 .75 23V5.5c0-.688.245-1.276.734-1.765A2.408 2.408 0 0 1 3.25 3H4.5V.5H7V3h10V.5h2.5V3h1.25c.688 0 1.276.245 1.766.735s.734 1.078.734 1.765V23a2.41 2.41 0 0 1-.734 1.766 2.41 2.41 0 0 1-1.766.734H3.25zm0-2.5h17.5V10.5H3.25V23zm0-15h17.5V5.5H3.25V8zm0 0V5.5 8zM12 15.5c-.354 0-.65-.12-.89-.36s-.36-.536-.36-.89.12-.651.36-.891S11.646 13 12 13s.651.12.891.359c.24.24.359.537.359.891s-.12.65-.359.89c-.24.24-.537.36-.891.36zm-5 0a1.21 1.21 0 0 1-.891-.36 1.208 1.208 0 0 1-.359-.89c0-.354.12-.651.359-.891.24-.24.537-.359.891-.359s.651.12.891.359c.24.24.359.537.359.891s-.12.65-.359.89c-.24.24-.537.36-.891.36zm10 0c-.354 0-.65-.12-.89-.36s-.36-.536-.36-.89.12-.651.36-.891S16.646 13 17 13s.65.12.89.359c.24.24.36.537.36.891s-.12.65-.36.89-.536.36-.89.36zm-5 5c-.354 0-.65-.12-.89-.36s-.36-.536-.36-.89.12-.65.36-.89.536-.36.89-.36.651.12.891.36.359.536.359.89-.12.65-.359.89c-.24.24-.537.36-.891.36zm-5 0a1.21 1.21 0 0 1-.891-.36 1.208 1.208 0 0 1-.359-.89c0-.354.12-.65.359-.89.24-.24.537-.36.891-.36s.651.12.891.36.359.536.359.89-.12.65-.359.89c-.24.24-.537.36-.891.36zm10 0c-.354 0-.65-.12-.89-.36s-.36-.536-.36-.89.12-.65.36-.89.536-.36.89-.36.65.12.89.36.36.536.36.89-.12.65-.36.89-.536.36-.89.36z" fill="#202020"/></svg>