<svg width="34" height="34" fill="none" xmlns="http://www.w3.org/2000/svg"><path d="M23.375 27.625a2.125 2.125 0 1 0 0-4.25 2.125 2.125 0 0 0 0 4.25z" fill="#fff"/><path d="M31.638 24.946a9.18 9.18 0 0 0-8.263-5.821 9.18 9.18 0 0 0-8.263 5.821l-.237.554.237.554a9.18 9.18 0 0 0 8.263 5.821 9.18 9.18 0 0 0 8.263-5.821l.237-.554-.237-.554zm-8.263 4.804a4.25 4.25 0 1 1 0-8.5 4.25 4.25 0 0 1 0 8.5z" fill="#fff"/><path d="M12.75 29.75H8.5V4.25H17v6.375a2.131 2.131 0 0 0 2.125 2.125H25.5V17h2.125v-6.375a.968.968 0 0 0-.319-.744L19.87 2.444a.966.966 0 0 0-.744-.319H8.5A2.131 2.131 0 0 0 6.375 4.25v25.5A2.131 2.131 0 0 0 8.5 31.875h4.25V29.75zm6.375-25.075 5.95 5.95h-5.95v-5.95z" fill="#fff"/></svg>