<svg width="31" height="31" fill="none" xmlns="http://www.w3.org/2000/svg"><path d="M15.417.005c-.05.01-.1.022-.149.037a1.19 1.19 0 0 0-.93 1.19V2.5C8.075 3.067 3.08 8.064 2.511 14.33H1.247a1.191 1.191 0 1 0 0 2.381h1.265c.568 6.267 5.563 11.265 11.826 11.834v1.264a1.191 1.191 0 1 0 2.38 0v-1.265c6.264-.568 11.26-5.566 11.828-11.832h1.264a1.19 1.19 0 0 0 0-2.382h-1.265c-.568-6.266-5.562-11.263-11.826-11.833V1.233A1.19 1.19 0 0 0 15.417.005zM14.338 6.07v1.117a1.191 1.191 0 1 0 2.38 0V6.07a9.502 9.502 0 0 1 8.258 8.261h-1.117a1.192 1.192 0 1 0 0 2.381h1.117a9.51 9.51 0 0 1-8.257 8.262v-1.117a1.19 1.19 0 1 0-2.38 0v1.117a9.503 9.503 0 0 1-8.257-8.261h1.116a1.19 1.19 0 1 0 0-2.382H6.082a9.51 9.51 0 0 1 8.256-8.26z" fill="#fff"/></svg>