<svg width="25" height="28" fill="none" xmlns="http://www.w3.org/2000/svg"><path d="M7.2.4a3.4 3.4 0 0 0-3.4 3.4v11.9h1.7V3.8a1.7 1.7 0 0 1 1.7-1.7H14v5.95a2.55 2.55 0 0 0 2.55 2.55h5.95v13.6a1.7 1.7 0 0 1-1.7 1.7H7.2a1.7 1.7 0 0 1-1.7-1.7v-3.4H3.8v3.4a3.4 3.4 0 0 0 3.4 3.4h13.6a3.4 3.4 0 0 0 3.4-3.4V9.604a2.55 2.55 0 0 0-.748-1.802L16.8 1.146A2.55 2.55 0 0 0 14.997.4H7.2zm14.948 8.5H16.55a.85.85 0 0 1-.85-.85V2.452L22.148 8.9zM8.05 14a.85.85 0 0 0 0 1.7h11.9a.85.85 0 1 0 0-1.7H8.05zm-6.8 3.4a.85.85 0 0 0 0 1.7h11.9a.85.85 0 1 0 0-1.7H1.25zm6.8 3.4a.85.85 0 0 0 0 1.7h11.9a.85.85 0 1 0 0-1.7H8.05z" fill="#fff"/></svg>