<svg width="59" height="40" fill="none" xmlns="http://www.w3.org/2000/svg"><g clip-path="url(#a)"><path d="M59 0H0v40h59V0z" fill="#039"/><path d="m29.5 4.444-.675 2.114 1.039.343-.364-2.457z" fill="#FC0"/><path d="m29.5 4.444.675 2.114-1.039.343.364-2.457z" fill="#FC0"/><path d="m31.578 5.98-2.18.009-.005 1.102 2.185-1.111z" fill="#FC0"/><path d="m31.578 5.976-1.772 1.31-.638-.894 2.41-.416z" fill="#FC0"/><path d="m30.784 8.462-.672-2.111-1.042.346 1.714 1.765z" fill="#FC0"/><path d="m30.782 8.464-1.766-1.303.645-.902 1.12 2.205z" fill="#FC0"/><path d="m27.422 5.98 2.181.009.005 1.102-2.186-1.111z" fill="#FC0"/><path d="m27.422 5.976 1.772 1.31.638-.894-2.41-.416z" fill="#FC0"/><path d="m28.216 8.462.672-2.111 1.043.346-1.715 1.765z" fill="#FC0"/><path d="m28.219 8.464 1.765-1.303-.645-.902-1.12 2.205zM29.5 31.11l-.675 2.114 1.039.344-.364-2.457z" fill="#FC0"/><path d="m29.5 31.11.675 2.114-1.039.344.364-2.457z" fill="#FC0"/><path d="m31.578 32.647-2.18.008-.005 1.103 2.185-1.111z" fill="#FC0"/><path d="m31.578 32.642-1.772 1.31-.638-.894 2.41-.416z" fill="#FC0"/><path d="m30.784 35.128-.672-2.11-1.042.345 1.714 1.765z" fill="#FC0"/><path d="m30.782 35.13-1.766-1.303.645-.901 1.12 2.205z" fill="#FC0"/><path d="m27.422 32.647 2.181.008.005 1.103-2.186-1.111z" fill="#FC0"/><path d="m27.422 32.642 1.772 1.31.638-.894-2.41-.416z" fill="#FC0"/><path d="m28.216 35.128.672-2.11 1.043.345-1.715 1.765z" fill="#FC0"/><path d="m28.219 35.13 1.765-1.303-.645-.901-1.12 2.205zM16.389 17.778l-.676 2.113 1.04.344-.364-2.457z" fill="#FC0"/><path d="m16.389 17.778.675 2.113-1.04.344.365-2.457z" fill="#FC0"/><path d="m18.467 19.314-2.181.008-.004 1.103 2.185-1.111z" fill="#FC0"/><path d="m18.467 19.31-1.772 1.31-.638-.895 2.41-.416z" fill="#FC0"/><path d="M17.673 21.795 17 19.685l-1.043.345 1.715 1.765z" fill="#FC0"/><path d="m17.67 21.798-1.765-1.304.645-.901 1.12 2.205z" fill="#FC0"/><path d="m14.311 19.314 2.18.008.005 1.103-2.185-1.111z" fill="#FC0"/><path d="m14.311 19.31 1.772 1.31.638-.895-2.41-.416z" fill="#FC0"/><path d="m15.105 21.795.672-2.11 1.042.345-1.714 1.765z" fill="#FC0"/><path d="m15.107 21.798 1.766-1.304-.645-.901-1.12 2.205zM21.663 10.25l1.765-1.303-.645-.902-1.12 2.206z" fill="#FC0"/><path d="m21.66 10.248.672-2.11 1.043.345-1.715 1.765z" fill="#FC0"/><path d="m20.866 7.764 1.77 1.309.64-.897-2.41-.412z" fill="#FC0"/><path d="m20.866 7.767 2.183.004.002 1.107-2.185-1.111z" fill="#FC0"/><path d="m22.941 6.231-.671 2.11 1.043.347-.372-2.457z" fill="#FC0"/><path d="m22.941 6.231.68 2.116-1.036.34.356-2.456z" fill="#FC0"/><path d="m24.231 10.25-1.77-1.308.64-.897 1.13 2.206z" fill="#FC0"/><path d="m24.229 10.253-.678-2.116-1.036.341 1.714 1.775z" fill="#FC0"/><path d="m25.023 7.768-1.766 1.304-.644-.901 2.41-.403z" fill="#FC0"/><path d="m25.021 7.77-2.183-.004.002 1.107L25.02 7.77zM19.43 15.128l-.672-2.11-1.043.345 1.715 1.765z" fill="#FC0"/><path d="m19.427 15.13-1.765-1.302.645-.902 1.12 2.205z" fill="#FC0"/><path d="m16.858 15.13 1.77-1.308-.64-.896-1.13 2.205z" fill="#FC0"/><path d="m16.86 15.133.68-2.115 1.035.34-1.714 1.775z" fill="#FC0"/><path d="m16.067 12.648 1.766 1.304.644-.9-2.41-.404z" fill="#FC0"/><path d="m16.069 12.65 2.183-.004-.002 1.107-2.181-1.103z" fill="#FC0"/><path d="m20.224 12.645-1.77 1.308-.64-.896 2.41-.412z" fill="#FC0"/><path d="m20.224 12.647-2.183.005-.003 1.106 2.186-1.111z" fill="#FC0"/><path d="m18.148 11.111.672 2.111-1.043.346.371-2.457z" fill="#FC0"/><path d="m18.148 11.111-.678 2.116 1.035.341-.357-2.457zM20.224 25.98l-2.18.012-.006 1.1 2.186-1.112z" fill="#FC0"/><path d="m20.224 25.974-1.774 1.312-.636-.892 2.41-.42z" fill="#FC0"/><path d="m19.43 28.457-.666-2.106-1.048.35 1.714 1.756z" fill="#FC0"/><path d="m19.424 28.464-1.761-1.298.648-.907 1.113 2.205z" fill="#FC0"/><path d="m16.857 28.464 1.772-1.31-.638-.895-1.134 2.205z" fill="#FC0"/><path d="m16.861 28.468.681-2.117 1.034.339-1.715 1.778z" fill="#FC0"/><path d="m18.153 24.444.668 2.108-1.047.35.38-2.458z" fill="#FC0"/><path d="m18.153 24.444-.683 2.12 1.032.337-.349-2.457z" fill="#FC0"/><path d="m16.07 25.985 2.183-.005-.003 1.106-2.18-1.1z" fill="#FC0"/><path d="m16.067 25.982 1.766 1.304.644-.901-2.41-.403zM25.023 30.86l-2.18.013-.006 1.098 2.186-1.11z" fill="#FC0"/><path d="m25.023 30.854-1.774 1.313-.637-.893 2.41-.42z" fill="#FC0"/><path d="m24.229 33.338-.666-2.107-1.048.35 1.714 1.757z" fill="#FC0"/><path d="m24.223 33.345-1.762-1.299.65-.906 1.112 2.205z" fill="#FC0"/><path d="m21.656 33.345 1.772-1.311-.638-.894-1.134 2.205z" fill="#FC0"/><path d="m21.66 33.349.681-2.118 1.034.34-1.715 1.778z" fill="#FC0"/><path d="m22.952 29.325.668 2.107-1.047.35.38-2.457z" fill="#FC0"/><path d="m22.952 29.325-.683 2.119 1.032.338-.349-2.457z" fill="#FC0"/><path d="m20.869 30.866 2.183-.005-.003 1.106-2.18-1.101z" fill="#FC0"/><path d="m20.866 30.863 1.766 1.303.644-.901-2.41-.402zM42.611 17.778l.676 2.113-1.04.344.364-2.457z" fill="#FC0"/><path d="m42.611 17.778-.675 2.113 1.04.344-.365-2.457z" fill="#FC0"/><path d="m40.533 19.314 2.181.008.004 1.103-2.185-1.111z" fill="#FC0"/><path d="m40.533 19.31 1.772 1.31.638-.895-2.41-.416z" fill="#FC0"/><path d="m41.327 21.795.672-2.11 1.042.345-1.714 1.765z" fill="#FC0"/><path d="m41.33 21.798 1.765-1.304-.645-.901-1.12 2.205z" fill="#FC0"/><path d="m44.689 19.314-2.18.008-.005 1.103 2.185-1.111z" fill="#FC0"/><path d="m44.689 19.31-1.772 1.31-.638-.895 2.41-.416z" fill="#FC0"/><path d="m43.895 21.795-.672-2.11-1.042.345 1.714 1.765z" fill="#FC0"/><path d="m43.893 21.798-1.766-1.304.645-.901 1.12 2.205zM37.337 10.25l-1.765-1.303.645-.902 1.12 2.206z" fill="#FC0"/><path d="m37.34 10.248-.672-2.11-1.042.345 1.714 1.765z" fill="#FC0"/><path d="m38.134 7.764-1.77 1.309-.64-.897 2.41-.412z" fill="#FC0"/><path d="m38.134 7.767-2.183.004-.002 1.107 2.185-1.111z" fill="#FC0"/><path d="m36.059 6.231.671 2.11-1.042.347.37-2.457z" fill="#FC0"/><path d="m36.059 6.231-.68 2.116 1.036.34-.356-2.456z" fill="#FC0"/><path d="m34.769 10.25 1.77-1.308-.64-.897-1.13 2.206z" fill="#FC0"/><path d="m34.771 10.253.678-2.116 1.036.341-1.714 1.775z" fill="#FC0"/><path d="m33.977 7.768 1.766 1.304.644-.901-2.41-.403z" fill="#FC0"/><path d="m33.979 7.77 2.183-.004-.002 1.107L33.98 7.77zM39.57 15.128l.672-2.11 1.043.345-1.715 1.765z" fill="#FC0"/><path d="m39.573 15.13 1.765-1.302-.645-.902-1.12 2.205z" fill="#FC0"/><path d="m42.142 15.13-1.77-1.308.64-.896 1.13 2.205z" fill="#FC0"/><path d="m42.14 15.133-.68-2.115-1.035.34 1.714 1.775z" fill="#FC0"/><path d="m42.933 12.648-1.766 1.304-.644-.9 2.41-.404z" fill="#FC0"/><path d="m42.931 12.65-2.183-.004.002 1.107 2.181-1.103z" fill="#FC0"/><path d="m38.776 12.645 1.77 1.308.64-.896-2.41-.412z" fill="#FC0"/><path d="m38.776 12.647 2.183.005.003 1.106-2.186-1.111z" fill="#FC0"/><path d="m40.852 11.111-.672 2.111 1.043.346-.371-2.457z" fill="#FC0"/><path d="m40.852 11.111.678 2.116-1.035.341.357-2.457zM38.776 25.98l2.18.012.006 1.1-2.186-1.112z" fill="#FC0"/><path d="m38.776 25.974 1.774 1.312.636-.892-2.41-.42z" fill="#FC0"/><path d="m39.57 28.457.666-2.106 1.048.35-1.714 1.756z" fill="#FC0"/><path d="m39.576 28.464 1.761-1.298-.648-.907-1.113 2.205z" fill="#FC0"/><path d="m42.143 28.464-1.772-1.31.638-.895 1.134 2.205z" fill="#FC0"/><path d="m42.139 28.468-.681-2.117-1.034.339 1.715 1.778z" fill="#FC0"/><path d="m40.847 24.444-.668 2.108 1.047.35-.38-2.458z" fill="#FC0"/><path d="m40.847 24.444.683 2.12-1.032.337.349-2.457z" fill="#FC0"/><path d="m42.93 25.985-2.183-.005.003 1.106 2.18-1.1z" fill="#FC0"/><path d="m42.933 25.982-1.766 1.304-.644-.901 2.41-.403zM33.977 30.86l2.18.013.006 1.098-2.185-1.11z" fill="#FC0"/><path d="m33.977 30.854 1.774 1.313.637-.893-2.41-.42z" fill="#FC0"/><path d="m34.771 33.338.666-2.107 1.048.35-1.714 1.757z" fill="#FC0"/><path d="m34.777 33.345 1.762-1.299-.65-.906-1.112 2.205z" fill="#FC0"/><path d="m37.344 33.345-1.772-1.311.638-.894 1.134 2.205z" fill="#FC0"/><path d="m37.34 33.349-.681-2.118-1.033.34 1.714 1.778z" fill="#FC0"/><path d="m36.048 29.325-.668 2.107 1.047.35-.38-2.457z" fill="#FC0"/><path d="m36.048 29.325.683 2.119-1.032.338.349-2.457z" fill="#FC0"/><path d="m38.131 30.866-2.182-.005.002 1.106 2.18-1.101z" fill="#FC0"/><path d="m38.134 30.863-1.766 1.303-.644-.901 2.41-.402z" fill="#FC0"/></g><defs><clipPath id="a"><path fill="#fff" d="M0 0h59v40H0z"/></clipPath></defs></svg>