<svg width="34" height="34" viewBox="0 0 34 34" fill="none" xmlns="http://www.w3.org/2000/svg">
<path fill-rule="evenodd" clip-rule="evenodd" d="M25.5 11.3334C25.5 10.7698 25.7239 10.2293 26.1224 9.83077C26.5209 9.43226 27.0614 9.20837 27.625 9.20837C28.1886 9.20837 28.7291 9.43226 29.1276 9.83077C29.5261 10.2293 29.75 10.7698 29.75 11.3334V25.7147L27.625 28.9022L25.5 25.7147V11.3334ZM27.625 10.625C27.4371 10.625 27.257 10.6997 27.1241 10.8325C26.9913 10.9653 26.9167 11.1455 26.9167 11.3334V25.2854L27.625 26.3479L28.3333 25.2854V11.3334C28.3333 11.1455 28.2587 10.9653 28.1259 10.8325C27.993 10.6997 27.8129 10.625 27.625 10.625Z" fill="white"/>
<path fill-rule="evenodd" clip-rule="evenodd" d="M29.0417 14.1667H26.2083V12.75H29.0417V14.1667ZM7.08333 5.66667C6.70761 5.66667 6.34728 5.81592 6.0816 6.0816C5.81592 6.34728 5.66667 6.70761 5.66667 7.08333V26.9167C5.66667 27.2924 5.81592 27.6527 6.0816 27.9184C6.34728 28.1841 6.70761 28.3333 7.08333 28.3333H21.25C21.6257 28.3333 21.9861 28.1841 22.2517 27.9184C22.5174 27.6527 22.6667 27.2924 22.6667 26.9167V7.08333C22.6667 6.70761 22.5174 6.34728 22.2517 6.0816C21.9861 5.81592 21.6257 5.66667 21.25 5.66667H7.08333ZM4.25 7.08333C4.25 6.33189 4.54851 5.61122 5.07986 5.07986C5.61122 4.54851 6.33189 4.25 7.08333 4.25H21.25C22.0014 4.25 22.7221 4.54851 23.2535 5.07986C23.7848 5.61122 24.0833 6.33189 24.0833 7.08333V26.9167C24.0833 27.6681 23.7848 28.3888 23.2535 28.9201C22.7221 29.4515 22.0014 29.75 21.25 29.75H7.08333C6.33189 29.75 5.61122 29.4515 5.07986 28.9201C4.54851 28.3888 4.25 27.6681 4.25 26.9167V7.08333Z" fill="white"/>
<path fill-rule="evenodd" clip-rule="evenodd" d="M14.1663 10.625C14.1663 10.4371 14.2409 10.2569 14.3737 10.1241C14.5066 9.99125 14.6867 9.91663 14.8746 9.91663H20.5413C20.7291 9.91663 20.9093 9.99125 21.0421 10.1241C21.175 10.2569 21.2496 10.4371 21.2496 10.625C21.2496 10.8128 21.175 10.993 21.0421 11.1258C20.9093 11.2587 20.7291 11.3333 20.5413 11.3333H14.8746C14.6867 11.3333 14.5066 11.2587 14.3737 11.1258C14.2409 10.993 14.1663 10.8128 14.1663 10.625ZM14.1663 13.4583C14.1663 13.2704 14.2409 13.0903 14.3737 12.9574C14.5066 12.8246 14.6867 12.75 14.8746 12.75H20.5413C20.7291 12.75 20.9093 12.8246 21.0421 12.9574C21.175 13.0903 21.2496 13.2704 21.2496 13.4583C21.2496 13.6462 21.175 13.8263 21.0421 13.9592C20.9093 14.092 20.7291 14.1666 20.5413 14.1666H14.8746C14.6867 14.1666 14.5066 14.092 14.3737 13.9592C14.2409 13.8263 14.1663 13.6462 14.1663 13.4583ZM14.1663 19.8333C14.1663 19.6454 14.2409 19.4653 14.3737 19.3324C14.5066 19.1996 14.6867 19.125 14.8746 19.125H20.5413C20.7291 19.125 20.9093 19.1996 21.0421 19.3324C21.175 19.4653 21.2496 19.6454 21.2496 19.8333C21.2496 20.0212 21.175 20.2013 21.0421 20.3342C20.9093 20.467 20.7291 20.5416 20.5413 20.5416H14.8746C14.6867 20.5416 14.5066 20.467 14.3737 20.3342C14.2409 20.2013 14.1663 20.0212 14.1663 19.8333ZM14.1663 22.6666C14.1663 22.4788 14.2409 22.2986 14.3737 22.1658C14.5066 22.0329 14.6867 21.9583 14.8746 21.9583H20.5413C20.7291 21.9583 20.9093 22.0329 21.0421 22.1658C21.175 22.2986 21.2496 22.4788 21.2496 22.6666C21.2496 22.8545 21.175 23.0347 21.0421 23.1675C20.9093 23.3003 20.7291 23.375 20.5413 23.375H14.8746C14.6867 23.375 14.5066 23.3003 14.3737 23.1675C14.2409 23.0347 14.1663 22.8545 14.1663 22.6666ZM8.49959 19.8333V21.9583H10.6246V19.8333H8.49959ZM7.79126 18.4166H11.3329C11.5208 18.4166 11.701 18.4913 11.8338 18.6241C11.9666 18.7569 12.0413 18.9371 12.0413 19.125V22.6666C12.0413 22.8545 11.9666 23.0347 11.8338 23.1675C11.701 23.3003 11.5208 23.375 11.3329 23.375H7.79126C7.60339 23.375 7.42323 23.3003 7.29039 23.1675C7.15755 23.0347 7.08292 22.8545 7.08292 22.6666V19.125C7.08292 18.9371 7.15755 18.7569 7.29039 18.6241C7.42323 18.4913 7.60339 18.4166 7.79126 18.4166ZM12.542 10.1242C12.6748 10.257 12.7494 10.4371 12.7494 10.625C12.7494 10.8128 12.6748 10.9929 12.542 11.1258L9.20792 14.4599L7.29047 12.5424C7.22281 12.4771 7.16885 12.3989 7.13173 12.3125C7.0946 12.2261 7.07506 12.1331 7.07425 12.0391C7.07343 11.945 7.09135 11.8518 7.12697 11.7647C7.16258 11.6776 7.21518 11.5986 7.28169 11.5321C7.34819 11.4655 7.42728 11.413 7.51433 11.3773C7.60138 11.3417 7.69466 11.3238 7.78871 11.3246C7.88276 11.3254 7.97571 11.345 8.06213 11.3821C8.14855 11.4192 8.22671 11.4732 8.29205 11.5408L9.20792 12.4567L11.5405 10.1242C11.6733 9.99138 11.8534 9.91678 12.0413 9.91678C12.2291 9.91678 12.4092 9.99138 12.542 10.1242Z" fill="white"/>
</svg>
