<svg width="34" height="34" viewBox="0 0 34 34" fill="none" xmlns="http://www.w3.org/2000/svg">
<path d="M16.3023 4.38039L4.37974 16.303C4.13659 16.5462 4 16.8761 4 17.22C4 17.5639 4.13659 17.8937 4.37974 18.1369L16.303 30.0602C16.5462 30.3033 16.8761 30.4399 17.22 30.4399C17.5639 30.4399 17.8937 30.3033 18.1369 30.0602L30.0596 18.1376C30.3027 17.8944 30.4393 17.5645 30.4393 17.2206C30.4393 16.8767 30.3027 16.5469 30.0596 16.3036L18.1363 4.37974C17.8931 4.13659 17.5632 4 17.2193 4C16.8754 4 16.5456 4.13659 16.3023 4.37974V4.38039Z" stroke="white" stroke-width="2" stroke-linejoin="round"/>
<path d="M13.1895 17.2201H20.9714M17.0804 13.3291V21.1111" stroke="white" stroke-width="2" stroke-linecap="round"/>
</svg>
