<svg width="34" height="34" fill="none" xmlns="http://www.w3.org/2000/svg"><path d="M15.584 24.083h2.833v-5.95l2.267 2.267 1.983-1.983-5.666-5.667-5.667 5.667 1.983 1.983 2.267-2.267v5.95zm-9.917 4.25c-.779 0-1.446-.277-2-.831a2.73 2.73 0 0 1-.833-2.002v-17c0-.78.278-1.446.833-2a2.725 2.725 0 0 1 2-.833h8.5L17.001 8.5h11.333c.78 0 1.446.278 2.002.833.554.554.831 1.221.831 2V25.5c0 .78-.277 1.446-.831 2.002a2.732 2.732 0 0 1-2.002.831H5.667zm0-19.833v17h22.667V11.333H15.832L12.999 8.5H5.667zm0 0v17-17z" fill="#fff"/></svg>