<svg width="34" height="34" fill="none" xmlns="http://www.w3.org/2000/svg"><path d="m13.316 23.375 3.683-3.683 3.684 3.683 1.983-1.983-3.683-3.684 3.683-3.683-1.983-1.983-3.684 3.683-3.683-3.683-1.983 1.983 3.683 3.683-3.683 3.684 1.983 1.983zm-3.4 6.375c-.78 0-1.446-.277-2-.832a2.73 2.73 0 0 1-.833-2.001V8.5H5.666V5.667h7.083V4.25h8.5v1.417h7.084V8.5h-1.417v18.417c0 .779-.277 1.446-.832 2.001a2.732 2.732 0 0 1-2.001.832H9.916zM24.083 8.5H9.916v18.417h14.167V8.5zm-14.167 0v18.417V8.5z" fill="#fff"/></svg>