<svg width="34" height="34" fill="none" xmlns="http://www.w3.org/2000/svg"><path d="M25.765 26.408a4.189 4.189 0 1 1 0-8.377 4.189 4.189 0 0 1 0 8.377zm0-7.537a3.337 3.337 0 1 0 0 6.675 3.337 3.337 0 0 0 0-6.675z" fill="#fff" stroke="#fff"/><path d="M30.581 27.455a.414.414 0 0 1-.297-.123l-2.312-2.312a.42.42 0 0 1 .594-.593l2.312 2.312a.42.42 0 0 1-.297.716z" fill="#fff" stroke="#fff"/><path d="M16.173 16.78a5.89 5.89 0 1 1 5.89-5.89 5.905 5.905 0 0 1-5.89 5.89zm0-9.424a3.534 3.534 0 1 0 0 7.069 3.534 3.534 0 0 0 0-7.069zM5.178 27.775A1.178 1.178 0 0 1 4 26.597c0-7.461 8.529-7.461 12.173-7.461 1.13 0 2.136 0 3.047.11a1.178 1.178 0 0 1 1.084 1.257 1.194 1.194 0 0 1-1.273 1.083c-.848 0-1.79-.094-2.858-.094-8.136 0-9.817 2.042-9.817 5.105a1.162 1.162 0 0 1-1.178 1.178z" fill="#fff"/></svg>