<svg width="13" height="14" fill="none" xmlns="http://www.w3.org/2000/svg"><path d="M6.82.875a6.125 6.125 0 1 0 .001 12.25 6.125 6.125 0 0 0 0-12.25zm0 11.21a5.087 5.087 0 1 1 .002-10.173 5.087 5.087 0 0 1-.002 10.174z" fill="#000" fill-opacity=".85"/><path d="M8.346 4.33a2.305 2.305 0 0 0-1.526-.557c-.574 0-1.116.198-1.526.556a1.864 1.864 0 0 0-.661 1.413v.104c0 .06.049.109.109.109h.656c.06 0 .11-.05.11-.11v-.103c0-.603.589-1.094 1.312-1.094.723 0 1.313.49 1.313 1.094 0 .425-.301.815-.767.994a1.528 1.528 0 0 0-.985 1.446v.294c0 .06.05.11.11.11h.656c.06 0 .11-.05.11-.11v-.31a.66.66 0 0 1 .422-.613c.806-.31 1.327-1.021 1.327-1.811a1.858 1.858 0 0 0-.66-1.413zm-2.073 5.677a.547.547 0 1 0 1.094 0 .547.547 0 0 0-1.094 0z" fill="#000" fill-opacity=".85"/></svg>