<svg width="25" height="25" fill="none" xmlns="http://www.w3.org/2000/svg"><path d="M23.5 7.962h-22a1.031 1.031 0 1 1 0-2.062h22a1.031 1.031 0 0 1 0 2.062z" fill="#fff"/><path d="M18.605 24.531H6.395a3.3 3.3 0 0 1-3.52-3.107V7a1.031 1.031 0 0 1 2.063 0v14.424c0 .564.646 1.045 1.375 1.045h12.21c.77 0 1.375-.482 1.375-1.045V7a1.114 1.114 0 1 1 2.227 0v14.424a3.3 3.3 0 0 1-3.52 3.107zm.165-17.875a1.017 1.017 0 0 1-1.031-1.031V3.576c0-.563-.66-1.045-1.375-1.045H8.677c-.756 0-1.374.482-1.374 1.045v2.049a1.031 1.031 0 1 1-2.063 0V3.576A3.314 3.314 0 0 1 8.678.47h7.645A3.313 3.313 0 0 1 19.8 3.576v2.049A1.03 1.03 0 0 1 18.77 6.67v-.014z" fill="#fff"/><path d="M10.053 19.375a1.044 1.044 0 0 1-1.032-1.031v-6.229a1.031 1.031 0 0 1 2.063 0v6.215a1.032 1.032 0 0 1-1.031 1.045zM14.947 19.375a1.031 1.031 0 0 1-1.031-1.031v-6.229a1.031 1.031 0 0 1 2.063 0v6.215a1.045 1.045 0 0 1-1.032 1.045z" fill="#fff"/></svg>