<svg width="34" height="34" fill="none" xmlns="http://www.w3.org/2000/svg"><path d="M14.875 18.417H4.958c-.425 0-.708.283-.708.708v9.917c0 .425.283.708.708.708h9.917c.425 0 .708-.283.708-.708v-9.917c0-.425-.283-.708-.708-.708zm-.708 9.916h-8.5v-8.5h8.5v8.5zm.708-24.083H4.958c-.425 0-.708.283-.708.708v9.917c0 .425.283.708.708.708h9.917c.425 0 .708-.283.708-.708V4.958c0-.425-.283-.708-.708-.708zm-.708 9.917h-8.5v-8.5h8.5v8.5zM29.042 4.25h-9.917c-.425 0-.708.283-.708.708v9.917c0 .425.283.708.708.708h9.917c.425 0 .708-.283.708-.708V4.958c0-.425-.283-.708-.708-.708zm-.709 9.917h-8.5v-8.5h8.5v8.5zm.709 9.208h-4.25v-4.25c0-.425-.284-.708-.709-.708s-.708.283-.708.708v4.25h-4.25c-.425 0-.708.283-.708.708s.283.709.708.709h4.25v4.25c0 .425.283.708.708.708s.709-.283.709-.708v-4.25h4.25c.425 0 .708-.284.708-.709s-.283-.708-.708-.708z" fill="#fff"/></svg>