<svg width="24" height="24" fill="none" xmlns="http://www.w3.org/2000/svg"><path d="M20.293 23.667H3.707A3.522 3.522 0 0 1 .333 20v-4a1 1 0 1 1 2 0v4a1.547 1.547 0 0 0 1.334 1.667h16.626A1.547 1.547 0 0 0 21.627 20v-4a1 1 0 0 1 2 0v4a3.52 3.52 0 0 1-3.334 3.667zM17.333 7.667a.987.987 0 0 1-.706-.293L12 2.747 7.373 7.374A1 1 0 0 1 5.96 5.96L11.293.627a1 1 0 0 1 1.414 0L18.04 5.96a1 1 0 0 1-.707 1.707z" fill="#fff"/><path d="M12 17a1.014 1.014 0 0 1-1-1V1.334a1 1 0 0 1 2 0V16a1.013 1.013 0 0 1-1 1z" fill="#fff"/></svg>