<svg width="31" height="27" fill="none" xmlns="http://www.w3.org/2000/svg"><path d="M24.057 24.373a4.63 4.63 0 1 1 0-9.259 4.63 4.63 0 0 1 0 9.26zm0-8.33a3.689 3.689 0 1 0 0 7.378 3.689 3.689 0 0 0 0-7.378z" fill="#147" stroke="#147" stroke-width=".5"/><path d="M29.536 26.29a.457.457 0 0 1-.328-.137l-2.556-2.556a.464.464 0 0 1 .656-.655l2.556 2.555a.464.464 0 0 1-.328.792z" fill="#147" stroke="#147" stroke-width=".5"/><path d="M13.455 13.231a6.01 6.01 0 0 1-3.338-1.013l-.278.416.277-.416a6.01 6.01 0 1 1 9.35-4.998 6.028 6.028 0 0 1-6.01 6.011zm0-10.416a4.406 4.406 0 1 0 0 8.812 4.406 4.406 0 0 0 0-8.812zM1.309 25.384h-.007a.802.802 0 0 1-.802-.802c0-1.96.557-3.39 1.423-4.451.873-1.069 2.089-1.799 3.464-2.294 2.765-.997 6.04-1.002 8.068-1.002 1.258 0 2.337.001 3.308.118l.01.002h.011a.802.802 0 0 1 .738.851.82.82 0 0 1-.284.545l.324.381-.324-.38a.82.82 0 0 1-.589.193l-.017-.001h-.018c-.428 0-.882-.023-1.377-.047l-.087-.005a33.701 33.701 0 0 0-1.695-.052c-4.512 0-7.347.56-9.062 1.627-.872.542-1.455 1.214-1.813 1.997-.354.775-.476 1.629-.476 2.518v.007a.785.785 0 0 1-.795.795z" fill="#147" stroke="#147"/></svg>